<?xml version="1.0" encoding="UTF-8" standalone="no"?>
<!DOCTYPE svg PUBLIC "-//W3C//DTD SVG 1.1//EN"
 "http://www.w3.org/Graphics/SVG/1.1/DTD/svg11.dtd">
<!-- Generated by graphviz version 2.38.0 (20140413.2041)
 -->
<!-- Title: %3 Pages: 1 -->
<svg width="178pt" height="106pt"
 viewBox="0.00 0.00 178.00 105.84" xmlns="http://www.w3.org/2000/svg" xmlns:xlink="http://www.w3.org/1999/xlink">
<g id="graph0" class="graph" transform="scale(1 1) rotate(0) translate(4 101.841)">
<title>%3</title>
<polygon fill="white" stroke="none" points="-4,4 -4,-101.841 174,-101.841 174,4 -4,4"/>
<!-- In0 -->
<g id="node1" class="node"><title>In0</title>
<polygon fill="lightgray" stroke="black" points="123,-97.8406 94,-97.8406 94,-79.8406 123,-79.8406 123,-97.8406"/>
<text text-anchor="middle" x="108.5" y="-86.6406" font-family="Times,serif" font-size="9.00">In0</text>
</g>
<!-- act1 -->
<g id="node5" class="node"><title>act1</title>
<ellipse fill="lightblue" stroke="black" cx="53.5" cy="-21.9203" rx="21.8409" ry="21.8409"/>
<text text-anchor="middle" x="53.5" y="-19.7203" font-family="Times,serif" font-size="9.00">act1</text>
</g>
<!-- In0&#45;&gt;act1 -->
<g id="edge1" class="edge"><title>In0&#45;&gt;act1</title>
<path fill="none" stroke="red" stroke-width="0.614405" d="M101.534,-79.6184C94.5824,-71.4127 83.5631,-58.4058 73.8313,-46.9188"/>
<polygon fill="red" stroke="red" stroke-width="0.614405" points="76.5001,-44.6543 67.3655,-39.2867 71.1591,-49.1791 76.5001,-44.6543"/>
</g>
<!-- act2 -->
<g id="node6" class="node"><title>act2</title>
<ellipse fill="lightblue" stroke="black" cx="115.5" cy="-21.9203" rx="21.8409" ry="21.8409"/>
<text text-anchor="middle" x="115.5" y="-19.7203" font-family="Times,serif" font-size="9.00">act2</text>
</g>
<!-- In0&#45;&gt;act2 -->
<g id="edge2" class="edge"><title>In0&#45;&gt;act2</title>
<path fill="none" stroke="green" stroke-width="0.169112" d="M109.387,-79.6184C110.094,-73.0536 111.134,-63.4159 112.155,-53.9419"/>
<polygon fill="green" stroke="green" stroke-width="0.169112" points="115.648,-54.1966 113.24,-43.879 108.688,-53.4462 115.648,-54.1966"/>
</g>
<!-- In1 -->
<g id="node2" class="node"><title>In1</title>
<polygon fill="lightgray" stroke="black" points="170,-97.8406 141,-97.8406 141,-79.8406 170,-79.8406 170,-97.8406"/>
<text text-anchor="middle" x="155.5" y="-86.6406" font-family="Times,serif" font-size="9.00">In1</text>
</g>
<!-- In1&#45;&gt;act1 -->
<g id="edge3" class="edge"><title>In1&#45;&gt;act1</title>
<path fill="none" stroke="green" stroke-width="0.194262" d="M142.055,-79.7225C127.704,-71.0073 104.346,-56.68 84.5,-43.8406 82.8646,-42.7826 81.1867,-41.6852 79.4988,-40.5723"/>
<polygon fill="green" stroke="green" stroke-width="0.194262" points="81.3874,-37.6249 71.126,-34.9878 77.5032,-43.4484 81.3874,-37.6249"/>
</g>
<!-- In1&#45;&gt;act2 -->
<g id="edge4" class="edge"><title>In1&#45;&gt;act2</title>
<path fill="none" stroke="green" stroke-width="0.216189" d="M150.434,-79.6184C145.77,-72.0482 138.588,-60.3916 131.946,-49.612"/>
<polygon fill="green" stroke="green" stroke-width="0.216189" points="134.786,-47.55 126.561,-40.8723 128.827,-51.222 134.786,-47.55"/>
</g>
<!-- In3 -->
<g id="node3" class="node"><title>In3</title>
<polygon fill="lightgray" stroke="black" points="29,-97.8406 1.77636e-15,-97.8406 1.77636e-15,-79.8406 29,-79.8406 29,-97.8406"/>
<text text-anchor="middle" x="14.5" y="-86.6406" font-family="Times,serif" font-size="9.00">In3</text>
</g>
<!-- In3&#45;&gt;act1 -->
<g id="edge5" class="edge"><title>In3&#45;&gt;act1</title>
<path fill="none" stroke="green" stroke-width="0.432533" d="M19.4394,-79.6184C23.9551,-72.1015 30.8911,-60.5556 37.3285,-49.8398"/>
<polygon fill="green" stroke="green" stroke-width="0.432533" points="40.4051,-51.5151 42.5545,-41.1405 34.4046,-47.9103 40.4051,-51.5151"/>
</g>
<!-- In3&#45;&gt;act2 -->
<g id="edge6" class="edge"><title>In3&#45;&gt;act2</title>
<path fill="none" stroke="green" stroke-width="0.345291" d="M27.7406,-79.6956C41.8776,-70.958 64.8958,-56.6121 84.5,-43.8406 86.1321,-42.7774 87.8073,-41.6761 89.4933,-40.5601"/>
<polygon fill="green" stroke="green" stroke-width="0.345291" points="91.4915,-43.4344 97.8612,-34.9681 87.6021,-37.6144 91.4915,-43.4344"/>
</g>
<!-- In4 -->
<g id="node4" class="node"><title>In4</title>
<polygon fill="lightgray" stroke="black" points="76,-97.8406 47,-97.8406 47,-79.8406 76,-79.8406 76,-97.8406"/>
<text text-anchor="middle" x="61.5" y="-86.6406" font-family="Times,serif" font-size="9.00">In4</text>
</g>
<!-- In4&#45;&gt;act1 -->
<g id="edge7" class="edge"><title>In4&#45;&gt;act1</title>
<path fill="none" stroke="green" stroke-width="0.235768" d="M60.4868,-79.6184C59.6778,-73.0536 58.4902,-63.4159 57.3227,-53.9419"/>
<polygon fill="green" stroke="green" stroke-width="0.235768" points="60.7795,-53.3759 56.0827,-43.879 53.8321,-54.232 60.7795,-53.3759"/>
</g>
<!-- In4&#45;&gt;act2 -->
<g id="edge8" class="edge"><title>In4&#45;&gt;act2</title>
<path fill="none" stroke="green" stroke-width="0.20708" d="M68.3391,-79.6184C75.0989,-71.4916 85.7759,-58.6555 95.2624,-47.2506"/>
<polygon fill="green" stroke="green" stroke-width="0.20708" points="98.1826,-49.213 101.887,-39.2867 92.8009,-44.7366 98.1826,-49.213"/>
</g>
</g>
</svg>
